<?xml version="1.0" standalone="no"?>
<!DOCTYPE svg PUBLIC "-//W3C//DTD SVG 20010904//EN"
 "http://www.w3.org/TR/2001/REC-SVG-20010904/DTD/svg10.dtd">
<svg version="1.0" xmlns="http://www.w3.org/2000/svg"
 width="16.000000pt" height="16.000000pt" viewBox="0 0 16.000000 16.000000"
 preserveAspectRatio="xMidYMid meet">
<metadata>
Created by potrace 1.16, written by Peter Selinger 2001-2019
</metadata>
<g transform="translate(0.000000,16.000000) scale(0.100000,-0.100000)"
fill="#000000" stroke="none">
<path d="M0 80 l0 -80 80 0 80 0 0 80 0 80 -80 0 -80 0 0 -80z m100 29 c0 -5
6 -6 13 -3 8 3 13 -3 13 -16 0 -11 -4 -20 -8 -20 -4 0 -8 -8 -8 -17 0 -13 -3
-14 -11 -6 -6 6 -18 9 -27 6 -10 -4 -13 -2 -8 5 4 7 2 12 -6 12 -10 0 -10 2 0
9 8 4 13 11 13 15 -3 18 0 23 14 23 8 0 15 -4 15 -8z"/>
</g>
</svg>
